# AST/ASF file generated using VICON BodyLanguage
# -----------------------------------------------
:version 1.10
:name VICON
:units
  mass 1.0
  length 0.45
  angle deg
:documentation
   .ast/.asf automatically generated from VICON data using
   VICON BodyBuilder and BodyLanguage model FoxedUp or BRILLIANT.MOD
:root
   order TX TY TZ RX RY RZ
   axis XYZ
   position 0 0 0  
   orientation 0 0 0 
:bonedata
  begin
     id 1 
     name lhipjoint
     direction 0.722297 -0.617336 0.311742 
     length 2.6635 
     axis 0 0 0  XYZ
  end
  begin
     id 2 
     name lfemur
     direction 0.34202 -0.939693 0  
     length 7.39349  
     axis 0 0 20  XYZ
    dof rx ry rz
    limits (-160.0 20.0)
           (-70.0 70.0)
           (-60.0 70.0)
  end
  begin
     id 3 
     name ltibia
     direction 0.34202 -0.939693 0   
     length 7.36294   
     axis 0 0 20   XYZ
    dof rx
    limits (-10.0 170.0)
  end
  begin
     id 4 
     name lfoot
     direction 0.104879 -0.288152 0.951824   
     length 2.16981   
     axis -90 7.62852e-016 20   XYZ
    dof rx rz
    limits (-45.0 90.0)
           (-70.0 20.0)
  end
  begin
     id 5 
     name ltoes
     direction 1.53586e-011 -4.21895e-011 1   
     length 1.08218   
     axis -90 7.62852e-016 20   XYZ
    dof rx
    limits (-90.0 20.0)
  end
  begin
     id 6 
     name rhipjoint
     direction -0.75102 -0.589393 0.297631   
     length 2.78977  
     axis 0 0 0  XYZ 
  end
  begin
     id 7 
     name rfemur
     direction -0.34202 -0.939693 0   
     length 7.46076   
     axis 0 0 -20   XYZ
    dof rx ry rz
    limits (-160.0 20.0)
           (-70.0 70.0)
           (-70.0 60.0)
  end
  begin
     id 8 
     name rtibia
     direction -0.34202 -0.939693 0   
     length 7.31726   
     axis 0 0 -20   XYZ
    dof rx
    limits (-10.0 170.0)
 end
 begin
     id 9 
     name rfoot
     direction -0.107991 -0.296704 0.948844   
     length 2.09388  
     axis -90 -7.62852e-016 -20   XYZ
    dof rx rz
    limits (-45.0 90.0)
           (-20.0 70.0)
  end
  begin
     id 10 
     name rtoes
     direction -1.53559e-011 -4.21911e-011 1   
     length 1.04433   
     axis -90 -7.62852e-016 -20   XYZ
    dof rx
    limits (-90.0 20.0)
  end
  begin
     id 11 
     name lowerback
     direction 0.0165164 0.98272 0.184358   
     length 1.71896   
     axis 0 0 0   XYZ
    dof rx ry rz
    limits (-20.0 45.0)
           (-30.0 30.0)
           (-30.0 30.0)
  end
  begin
     id 12 
     name upperback
     direction -0.00887249 0.992297 0.123566   
     length 1.71504   
     axis 0 0 0   XYZ
    dof rx ry rz
    limits (-20.0 45.0)
           (-30.0 30.0)
           (-30.0 30.0)
  end
  begin
     id 13 
     name thorax
     direction -0.0157026 0.998908 0.0440032   
     length 1.77022   
     axis 0 0 0   XYZ
    dof rx ry rz
    limits (-20.0 45.0)
           (-30.0 30.0)
           (-30.0 30.0)
  end
  begin
     id 14 
     name lowerneck
     direction -0.0238856 0.998137 0.0561411   
     length 1.89341   
     axis 0 0 0   XYZ
    dof rx ry rz
    limits (-20.0 45.0)
           (-30.0 30.0)
           (-30.0 30.0)
  end
  begin
     id 15 
     name upperneck
     direction 0.0276574 0.952253 -0.304056   
     length 1.86999   
     axis 0 0 0   XYZ
    dof rx ry rz
    limits (-20.0 45.0)
           (-30.0 30.0)
           (-30.0 30.0)
  end
  begin
     id 16
     name head
     direction 0.00800083 0.994258 -0.106712  
     length 1.91492  
     axis 0 0 0   XYZ
    dof rx ry rz
    limits (-20.0 45.0)
           (-30.0 30.0)
           (-30.0 30.0)
  end
  begin
     id 17 
     name lclavicle
     direction 0.97203 0.225407 0.06595  
     length 3.34889  
     axis 0 0 0   XYZ
    dof ry rz
    limits (-20.0 10.0)
           (0.0 20.0)
  end
  begin
     id 18 
     name lhumerus
     direction 1 -4.48973e-011 2.20267e-027   
     length 4.85645   
     axis 180 -30 -90   XYZ
    dof rx ry rz
    limits (-60.0 90.0)
           (-90.0 90.0)
           (-90.0 90.0)
  end
  begin
     id 19
     name lradius
     direction 1 -4.4897e-011 4.60472e-027   
     length 2.79874   
     axis 180 -30 -90   XYZ
    dof rx
    limits (-10.0 170.0)
  end
  begin
     id 20
     name lwrist
     direction 1 -4.48952e-011 1.14928e-026   
     length 1.39937   
     axis -6.29373e-015 90 90   XYZ
    dof ry
    limits (-180.0 0.0)
 end
  begin
     id 21 
     name lhand
     direction 1 -4.48967e-011 2.29886e-026   
     length 0.573398   
     axis -1.46689e-014 90 90   XYZ
    dof rx rz
    limits (-90.0 90.0)
           (-45.0 45.0)
  end
  begin
     id 22 
     name lfingers
     direction 1 -4.48955e-011 4.59726e-026   
     length 0.462289   
     axis -2.93383e-014 90 90   XYZ
    dof rx
    limits (0.0 90.0)
  end
  begin
     id 23
     name lthumb
     direction 0.707107 -6.34866e-011 0.707107   
     length 0.663757   
     axis -90 45 5.69224e-014   XYZ
    dof rx rz
    limits (-45.0 45.0)
           (-45.0 45.0)
  end
  begin
     id 24 
     name rclavicle
     direction -0.981571 0.157346 0.108443   
     length 3.35257  
     axis 0 0 0   XYZ 
    dof ry rz
    limits (-10.0 20.0)
           (-20.0 0.0)
  end
  begin
     id 25 
     name rhumerus
     direction -1 -4.48967e-011 8.58308e-029  
     length 4.67018   
     axis 180 30 90   XYZ
    dof rx ry rz
    limits (-90.0 60.0)
           (-90.0 90.0)
           (-90.0 90.0)
  end
  begin
     id 26 
     name rradius
     direction -1 -4.48958e-011 4.52548e-027   
     length 2.65534   
     axis 180 30 90   XYZ
    dof rx
    limits (-10.0 170.0)
  end
  begin
     id 27 
     name rwrist
     direction -1 -4.48977e-011 1.14952e-026   
     length 1.32767   
     axis -6.29373e-015 -90 -90   XYZ
    dof ry
    limits (-180.0 0.0)
  end
  begin
     id 28
     name rhand
     direction -1 -4.48924e-011 2.29804e-026   
     length 0.594069   
     axis -1.46689e-014 -90 -90   XYZ
    dof rx rz
    limits (-90.0 90.0)
           (-45.0 45.0)
  end
  begin
     id 29
     name rfingers
     direction -1 -4.48998e-011 4.59888e-026   
     length 0.478954   
     axis -2.93383e-014 -90 -90   XYZ
    dof rx
    limits (0.0 90.0)
  end
  begin
     id 30
     name rthumb
     direction -0.707107 -6.34933e-011 0.707107   
     length 0.687685   
     axis -90 -45 -5.69224e-014   XYZ
    dof rx rz
    limits (-45.0 45.0)
           (-45.0 45.0)
  end
:hierarchy
  begin
    root lhipjoint rhipjoint lowerback
    lhipjoint lfemur
    lfemur ltibia
    ltibia lfoot
    lfoot ltoes
    rhipjoint rfemur
    rfemur rtibia
    rtibia rfoot
    rfoot rtoes
    lowerback upperback
    upperback thorax
    thorax lowerneck lclavicle rclavicle
    lowerneck upperneck
    upperneck head
    lclavicle lhumerus
    lhumerus lradius
    lradius lwrist
    lwrist lhand lthumb
    lhand lfingers
    rclavicle rhumerus
    rhumerus rradius
    rradius rwrist
    rwrist rhand rthumb
    rhand rfingers
  end

#!OML:ASF E:\pregnant2\Project 1\Capture day 1\Session 1\pregnant2.ASF
:FULLY-SPECIFIED
:DEGREES
980
root 3.65924 9.31806 11.3225 -114.539 58.8158 163.747
lowerback 5.35101 -2.05891 -2.65883
upperback -9.30888 -3.15214 -3.71644
thorax -13.2217 -1.28769 -2.1106
lowerneck -27.4425 2.30742 1.99012
upperneck 28.5308 5.27901 -6.66424
head 14.7433 1.59362 -1.97672
rclavicle -6.2816e-014 -3.51352e-014
rhumerus 18.6147 29.1968 -66.2202
rradius 49.6544
rwrist 21.4467
rhand -32.6377 -21.878
rfingers 7.12502
rthumb -5.86448 -51.7769
lclavicle -6.2816e-014 -3.51352e-014
lhumerus 24.9329 -16.7832 80.7974
lradius 18.0515
lwrist 2.56641
lhand -43.1242 64.5244
lfingers 7.12502
lthumb -15.978 -93.8855
rfemur -103.052 8.04342 26.949
rtibia 124.492
rfoot 2.13019 -4.91141
rtoes 13.493
lfemur -81.368 16.5796 -30.6873
ltibia 103.601
lfoot -18.4561 10.2041
ltoes -26.6583
981
root 3.64312 9.31717 11.3488 -114.82 58.8555 163.806
lowerback 5.3867 -2.08139 -2.63627
upperback -9.29986 -3.19012 -3.83747
thorax -13.2453 -1.31341 -2.25006
lowerneck -27.6658 2.39737 2.12542
upperneck 28.2964 5.30008 -6.66634
head 14.6904 1.60993 -1.99254
rclavicle 7.44449e-014 7.63582e-014
rhumerus 17.623 30.1781 -67.5576
rradius 50.2051
rwrist 21.8472
rhand -31.3879 -23.0839
rfingers 7.12502
rthumb -4.65766 -53.0127
lclavicle 7.44449e-014 7.63582e-014
lhumerus 24.8983 -16.5215 80.6607
lradius 17.872
lwrist 2.31216
lhand -42.9172 63.4198
lfingers 7.12502
lthumb -15.7786 -92.7967
rfemur -102.911 8.16989 26.9425
rtibia 124.634
rfoot 2.18155 -4.85777
rtoes 13.7662
lfemur -81.1717 16.7608 -30.6349
ltibia 103.778
lfoot -18.4854 10.3511
ltoes -26.8062
982
root 3.62737 9.31567 11.3762 -114.996 58.8583 163.94
lowerback 5.37107 -2.03763 -2.63211
upperback -9.30228 -3.1342 -3.93973
thorax -13.245 -1.29117 -2.37563
lowerneck -27.7521 2.4286 2.20267
upperneck 28.0152 5.25995 -6.66009
head 14.5828 1.60016 -2.0065
rclavicle -4.64162e-014 -3.45388e-015
rhumerus 16.3875 30.9541 -68.8344
rradius 50.7201
rwrist 22.12
rhand -30.4286 -24.1584
rfingers 7.12502
rthumb -3.73132 -54.1055
lclavicle -4.64162e-014 -3.45388e-015
lhumerus 24.8657 -16.6239 80.4871
lradius 17.7779
lwrist 2.22344
lhand -42.7535 62.6189
lfingers 7.12502
lthumb -15.6209 -92.0082
rfemur -102.8 8.35787 26.975
rtibia 124.743
rfoot 2.27077 -4.80478
rtoes 13.7736
lfemur -81.039 16.9326 -30.4707
ltibia 103.969
lfoot -18.5776 10.3304
ltoes -26.6117
983
root 3.61075 9.31331 11.4031 -115.228 58.8475 163.999
lowerback 5.35902 -2.08218 -2.45657
upperback -9.29092 -3.18295 -4.0668
thorax -13.2457 -1.33849 -2.60657
lowerneck -27.8935 2.53998 2.25678
upperneck 27.7146 5.32108 -6.60078
head 14.4819 1.63574 -1.97383
rclavicle 7.90293e-014 1.03266e-013
rhumerus 15.4974 31.7387 -70.4603
rradius 50.7671
rwrist 22.2742
rhand -29.6199 -25.0221
rfingers 7.12502
rthumb -2.95043 -54.9814
lclavicle 7.90293e-014 1.03266e-013
lhumerus 24.8299 -16.6911 80.0616
lradius 17.7341
lwrist 2.19545
lhand -42.7408 61.8829
lfingers 7.12502
lthumb -15.6087 -91.2731
rfemur -102.695 8.49556 26.9971
rtibia 124.861
rfoot 2.36323 -4.7168
rtoes 13.6239
lfemur -80.8892 17.03 -30.3158
ltibia 104.16
lfoot -18.6135 10.4255
ltoes -26.68
984
root 3.60899 9.32554 11.4262 -115.488 58.8604 164.018
lowerback 5.37063 -2.08895 -2.37314
upperback -9.29599 -3.19111 -4.19252
thorax -13.2744 -1.3561 -2.79161
lowerneck -28.0191 2.59794 2.33536
upperneck 27.4657 5.31843 -6.58118
head 14.3995 1.64236 -1.97563
rclavicle -4.01048e-014 -3.006e-014
rhumerus 14.3921 32.325 -72.0329
rradius 50.8492
rwrist 21.9555
rhand -28.8709 -25.5608
rfingers 7.12502
rthumb -2.22701 -55.5289
lclavicle -4.01048e-014 -3.006e-014
lhumerus 24.7607 -16.8831 79.6673
lradius 17.7738
lwrist 2.28081
lhand -42.449 60.8842
lfingers 7.12502
lthumb -15.3276 -90.2962
rfemur -102.464 8.57487 26.9989
rtibia 124.829
rfoot 2.41405 -4.60184
rtoes 13.618
lfemur -80.6256 17.0654 -30.1516
ltibia 104.207
lfoot -18.6351 10.5272
ltoes -26.7275
985
root 3.57914 9.30967 11.4581 -115.752 58.8632 164.021
lowerback 5.37479 -2.134 -2.16571
upperback -9.29034 -3.23989 -4.34787
thorax -13.2977 -1.40793 -3.07228
lowerneck -28.1834 2.69359 2.35374
upperneck 27.2505 5.3655 -6.46432
head 14.3372 1.67577 -1.91799
rclavicle 3.3694e-014 -1.13705e-013
rhumerus 13.5658 32.7842 -73.8398
rradius 50.4427
rwrist 21.2854
rhand -28.2498 -26.0136
rfingers 7.12502
rthumb -1.62714 -55.9872
lclavicle 3.3694e-014 -1.13705e-013
lhumerus 24.7035 -17.1379 79.0704
lradius 17.9105
lwrist 2.55986
lhand -42.0717 60.0578
lfingers 7.12502
lthumb -14.9642 89.4971
rfemur -102.548 8.70813 26.9901
rtibia 125.064
rfoot 2.57933 -4.57564
rtoes 13.875
lfemur -80.5924 17.0556 -29.9822
ltibia 104.498
lfoot -18.6138 10.6661
ltoes -26.9124
